<?plantuml 1.2026.1?><svg xmlns="http://www.w3.org/2000/svg" xmlns:xlink="http://www.w3.org/1999/xlink" contentStyleType="text/css" data-diagram-type="ACTIVITY" height="2830px" preserveAspectRatio="none" style="width:3544px;height:2830px;background:#FCFCFA;" version="1.1" viewBox="0 0 3544 2830" width="3544px" zoomAndPan="magnify"><title>BPMN Coverage View &#8212; Phase 0, G0-G9 and Governed Learning</title><defs/><g><rect fill="#FCFCFA" height="2830" style="stroke:none;stroke-width:1;" width="3544" x="0" y="0"/><g class="title" data-source-line="5"><text fill="#000000" font-family="DejaVu Sans" font-size="14" font-weight="bold" lengthAdjust="spacing" textLength="502.8037" x="1519.3179" y="32.9951">BPMN Coverage View &#8212; Phase 0, G0-G9 and Governed Learning</text></g><rect fill="none" height="20.9531" style="stroke:none;stroke-width:1;" width="3511.4395" x="15" y="50.042"/><ellipse cx="141.9963" cy="85.9951" fill="#222222" rx="10" ry="10" style="stroke:#222222;stroke-width:1;"/><rect fill="#F1F1F1" height="33.9688" rx="12.5" ry="12.5" style="stroke:#181818;stroke-width:0.5;" width="195.5938" x="44.1995" y="115.9951"/><text fill="#000000" font-family="DejaVu Sans" font-size="12" lengthAdjust="spacing" textLength="175.5938" x="54.1995" y="137.1338">Select bounded framing case</text><rect fill="#F1F1F1" height="33.9688" rx="12.5" ry="12.5" style="stroke:#181818;stroke-width:0.5;" width="115.0859" x="84.4534" y="218.3662"/><text fill="#000000" font-family="DejaVu Sans" font-size="12" lengthAdjust="spacing" textLength="95.0859" x="94.4534" y="239.5049">Stop or reframe</text><ellipse cx="141.9963" cy="292.3193" fill="none" rx="11" ry="11" style="stroke:#222222;stroke-width:1;"/><ellipse cx="141.9963" cy="292.3193" fill="#222222" rx="6" ry="6" style="stroke:#222222;stroke-width:1;"/><polygon fill="#F1F1F1" points="42,169.9639,241.9927,169.9639,253.9927,181.9639,241.9927,193.9639,42,193.9639,30,181.9639,42,169.9639" style="stroke:#181818;stroke-width:0.5;"/><text fill="#000000" font-family="DejaVu Sans" font-size="11" lengthAdjust="spacing" textLength="13.7017" x="145.9963" y="204.1743">no</text><text fill="#000000" font-family="DejaVu Sans" font-size="11" lengthAdjust="spacing" textLength="199.9927" x="42" y="185.772">G0 mandate and sources approved?</text><text fill="#000000" font-family="DejaVu Sans" font-size="11" lengthAdjust="spacing" textLength="19.0083" x="253.9927" y="179.3696">yes</text><rect fill="#F1F1F1" height="33.9688" rx="12.5" ry="12.5" style="stroke:#181818;stroke-width:0.5;" width="209.6914" x="37.1506" y="690.5146"/><text fill="#000000" font-family="DejaVu Sans" font-size="12" lengthAdjust="spacing" textLength="189.6914" x="47.1506" y="711.6533">STOP or NARROW after framing</text><ellipse cx="141.9963" cy="764.4678" fill="none" rx="11" ry="11" style="stroke:#222222;stroke-width:1;"/><ellipse cx="141.9963" cy="764.4678" fill="#222222" rx="6" ry="6" style="stroke:#222222;stroke-width:1;"/><polygon fill="#F1F1F1" points="73.9875,642.1123,210.0051,642.1123,222.0051,654.1123,210.0051,666.1123,73.9875,666.1123,61.9875,654.1123,73.9875,642.1123" style="stroke:#181818;stroke-width:0.5;"/><text fill="#000000" font-family="DejaVu Sans" font-size="11" lengthAdjust="spacing" textLength="13.7017" x="145.9963" y="676.3228">no</text><text fill="#000000" font-family="DejaVu Sans" font-size="11" lengthAdjust="spacing" textLength="136.0176" x="73.9875" y="657.9204">P0 phase exit approved?</text><text fill="#000000" font-family="DejaVu Sans" font-size="11" lengthAdjust="spacing" textLength="19.0083" x="222.0051" y="651.5181">yes</text><line style="stroke:#000000;stroke-width:1.5;" x1="15" x2="15" y1="50.042" y2="2818.6279"/><rect fill="#F1F1F1" height="33.9688" rx="12.5" ry="12.5" style="stroke:#181818;stroke-width:0.5;" width="271.8652" x="290.9927" y="345.3193"/><text fill="#000000" font-family="DejaVu Sans" font-size="12" lengthAdjust="spacing" textLength="251.8652" x="300.9927" y="366.458">Classify semantic status and assumptions</text><rect fill="#F1F1F1" height="33.9688" rx="12.5" ry="12.5" style="stroke:#181818;stroke-width:0.5;" width="145.6074" x="354.1216" y="447.6904"/><text fill="#000000" font-family="DejaVu Sans" font-size="12" lengthAdjust="spacing" textLength="125.6074" x="364.1216" y="468.8291">Resolve gaps or stop</text><ellipse cx="426.9253" cy="521.1748" fill="none" rx="11" ry="11" style="stroke:#222222;stroke-width:1;"/><ellipse cx="426.9253" cy="521.1748" fill="#222222" rx="6" ry="6" style="stroke:#222222;stroke-width:1;"/><polygon fill="#F1F1F1" points="390.1145,399.2881,463.7361,399.2881,475.7361,411.2881,463.7361,423.2881,390.1145,423.2881,378.1145,411.2881,390.1145,399.2881" style="stroke:#181818;stroke-width:0.5;"/><text fill="#000000" font-family="DejaVu Sans" font-size="11" lengthAdjust="spacing" textLength="13.7017" x="430.9253" y="433.4985">no</text><text fill="#000000" font-family="DejaVu Sans" font-size="11" lengthAdjust="spacing" textLength="73.6216" x="390.1145" y="415.0962">G1 inputs fit?</text><text fill="#000000" font-family="DejaVu Sans" font-size="11" lengthAdjust="spacing" textLength="19.0083" x="475.7361" y="408.6938">yes</text><rect fill="#F1F1F1" height="47.9375" rx="12.5" ry="12.5" style="stroke:#181818;stroke-width:0.5;" width="263.75" x="295.0503" y="574.1748"/><text fill="#000000" font-family="DejaVu Sans" font-size="12" lengthAdjust="spacing" textLength="243.75" x="305.0503" y="595.3135">Measure baseline and define thresholds,</text><text fill="#000000" font-family="DejaVu Sans" font-size="12" lengthAdjust="spacing" textLength="121.9629" x="305.0503" y="609.2822">budget and protocol</text><line style="stroke:#000000;stroke-width:1.5;" x1="284.9927" x2="284.9927" y1="50.042" y2="2818.6279"/><rect fill="#F1F1F1" height="47.9375" rx="12.5" ry="12.5" style="stroke:#181818;stroke-width:0.5;" width="278.7793" x="578.1978" y="817.4678"/><text fill="#000000" font-family="DejaVu Sans" font-size="12" lengthAdjust="spacing" textLength="258.7793" x="588.1978" y="838.6064">Create Solution Manifest, BOM alternatives</text><text fill="#000000" font-family="DejaVu Sans" font-size="12" lengthAdjust="spacing" textLength="150.4453" x="588.1978" y="852.5752">and evidence obligations</text><line style="stroke:#000000;stroke-width:1.5;" x1="566.8579" x2="566.8579" y1="50.042" y2="2818.6279"/><rect fill="#F1F1F1" height="33.9688" rx="12.5" ry="12.5" style="stroke:#181818;stroke-width:0.5;" width="174.623" x="923.4902" y="933.8076"/><text fill="#000000" font-family="DejaVu Sans" font-size="12" lengthAdjust="spacing" textLength="154.623" x="933.4902" y="954.9463">Reject or request revision</text><ellipse cx="1010.8018" cy="1007.7607" fill="none" rx="11" ry="11" style="stroke:#222222;stroke-width:1;"/><ellipse cx="1010.8018" cy="1007.7607" fill="#222222" rx="6" ry="6" style="stroke:#222222;stroke-width:1;"/><polygon fill="#F1F1F1" points="911.0874,885.4053,1110.5161,885.4053,1122.5161,897.4053,1110.5161,909.4053,911.0874,909.4053,899.0874,897.4053,911.0874,885.4053" style="stroke:#181818;stroke-width:0.5;"/><text fill="#000000" font-family="DejaVu Sans" font-size="11" lengthAdjust="spacing" textLength="13.7017" x="1014.8018" y="919.6157">no</text><text fill="#000000" font-family="DejaVu Sans" font-size="11" lengthAdjust="spacing" textLength="199.4287" x="911.0874" y="901.2134">G2 BOM and architecture accepted?</text><text fill="#000000" font-family="DejaVu Sans" font-size="11" lengthAdjust="spacing" textLength="19.0083" x="1122.5161" y="894.811">yes</text><line style="stroke:#000000;stroke-width:1.5;" x1="866.3169" x2="866.3169" y1="50.042" y2="2818.6279"/><rect fill="#F1F1F1" height="33.9688" rx="12.5" ry="12.5" style="stroke:#181818;stroke-width:0.5;" width="257.1465" x="1177.2866" y="1060.7607"/><text fill="#000000" font-family="DejaVu Sans" font-size="12" lengthAdjust="spacing" textLength="237.1465" x="1187.2866" y="1081.8994">Generate IaC, tests and documentation</text><rect fill="#F1F1F1" height="33.9688" rx="12.5" ry="12.5" style="stroke:#181818;stroke-width:0.5;" width="171.4355" x="1220.1421" y="1114.7295"/><text fill="#000000" font-family="DejaVu Sans" font-size="12" lengthAdjust="spacing" textLength="151.4355" x="1230.1421" y="1135.8682">Run deterministic checks</text><line style="stroke:#000000;stroke-width:1.5;" x1="1171.2866" x2="1171.2866" y1="50.042" y2="2818.6279"/><rect fill="#F1F1F1" height="33.9688" rx="12.5" ry="12.5" style="stroke:#181818;stroke-width:0.5;" width="135.0605" x="1460.9434" y="1217.1006"/><text fill="#000000" font-family="DejaVu Sans" font-size="12" lengthAdjust="spacing" textLength="115.0605" x="1470.9434" y="1238.2393">Return IaC findings</text><ellipse cx="1528.4736" cy="1291.0537" fill="none" rx="11" ry="11" style="stroke:#222222;stroke-width:1;"/><ellipse cx="1528.4736" cy="1291.0537" fill="#222222" rx="6" ry="6" style="stroke:#222222;stroke-width:1;"/><polygon fill="#F1F1F1" points="1465.4331,1168.6982,1591.5142,1168.6982,1603.5142,1180.6982,1591.5142,1192.6982,1465.4331,1192.6982,1453.4331,1180.6982,1465.4331,1168.6982" style="stroke:#181818;stroke-width:0.5;"/><text fill="#000000" font-family="DejaVu Sans" font-size="11" lengthAdjust="spacing" textLength="13.7017" x="1532.4736" y="1202.9087">no</text><text fill="#000000" font-family="DejaVu Sans" font-size="11" lengthAdjust="spacing" textLength="126.0811" x="1465.4331" y="1184.5063">G3 IaC quality passed?</text><text fill="#000000" font-family="DejaVu Sans" font-size="11" lengthAdjust="spacing" textLength="19.0083" x="1603.5142" y="1178.104">yes</text><line style="stroke:#000000;stroke-width:1.5;" x1="1438.4331" x2="1438.4331" y1="50.042" y2="2818.6279"/><rect fill="#F1F1F1" height="33.9688" rx="12.5" ry="12.5" style="stroke:#181818;stroke-width:0.5;" width="163.7012" x="1677.3262" y="1392.4561"/><text fill="#000000" font-family="DejaVu Sans" font-size="12" lengthAdjust="spacing" textLength="143.7012" x="1687.3262" y="1413.5947">Return security findings</text><ellipse cx="1759.1768" cy="1466.4092" fill="none" rx="11" ry="11" style="stroke:#222222;stroke-width:1;"/><ellipse cx="1759.1768" cy="1466.4092" fill="#222222" rx="6" ry="6" style="stroke:#222222;stroke-width:1;"/><polygon fill="#F1F1F1" points="1661.5142,1344.0537,1856.8394,1344.0537,1868.8394,1356.0537,1856.8394,1368.0537,1661.5142,1368.0537,1649.5142,1356.0537,1661.5142,1344.0537" style="stroke:#181818;stroke-width:0.5;"/><text fill="#000000" font-family="DejaVu Sans" font-size="11" lengthAdjust="spacing" textLength="13.7017" x="1763.1768" y="1378.2642">no</text><text fill="#000000" font-family="DejaVu Sans" font-size="11" lengthAdjust="spacing" textLength="195.3252" x="1661.5142" y="1359.8618">G4 cyber and supply chain passed?</text><text fill="#000000" font-family="DejaVu Sans" font-size="11" lengthAdjust="spacing" textLength="19.0083" x="1868.8394" y="1353.4595">yes</text><line style="stroke:#000000;stroke-width:1.5;" x1="1634.5142" x2="1634.5142" y1="50.042" y2="2818.6279"/><rect fill="#F1F1F1" height="33.9688" rx="12.5" ry="12.5" style="stroke:#181818;stroke-width:0.5;" width="230.6328" x="1933.188" y="1519.4092"/><text fill="#000000" font-family="DejaVu Sans" font-size="12" lengthAdjust="spacing" textLength="210.6328" x="1943.188" y="1540.5479">Deploy and test in isolated testbed</text><rect fill="#F1F1F1" height="33.9688" rx="12.5" ry="12.5" style="stroke:#181818;stroke-width:0.5;" width="285.3301" x="1905.8394" y="1621.7803"/><text fill="#000000" font-family="DejaVu Sans" font-size="12" lengthAdjust="spacing" textLength="265.3301" x="1915.8394" y="1642.9189">Record failed or unrepresentative execution</text><ellipse cx="2048.5044" cy="1695.7334" fill="none" rx="11" ry="11" style="stroke:#222222;stroke-width:1;"/><ellipse cx="2048.5044" cy="1695.7334" fill="#222222" rx="6" ry="6" style="stroke:#222222;stroke-width:1;"/><polygon fill="#F1F1F1" points="1985.1685,1573.3779,2111.8403,1573.3779,2123.8403,1585.3779,2111.8403,1597.3779,1985.1685,1597.3779,1973.1685,1585.3779,1985.1685,1573.3779" style="stroke:#181818;stroke-width:0.5;"/><text fill="#000000" font-family="DejaVu Sans" font-size="11" lengthAdjust="spacing" textLength="13.7017" x="2052.5044" y="1607.5884">no</text><text fill="#000000" font-family="DejaVu Sans" font-size="11" lengthAdjust="spacing" textLength="126.6719" x="1985.1685" y="1589.186">G5 execution credible?</text><text fill="#000000" font-family="DejaVu Sans" font-size="11" lengthAdjust="spacing" textLength="19.0083" x="2123.8403" y="1582.7837">yes</text><line style="stroke:#000000;stroke-width:1.5;" x1="1899.8394" x2="1899.8394" y1="50.042" y2="2818.6279"/><rect fill="#F1F1F1" height="33.9688" rx="12.5" ry="12.5" style="stroke:#181818;stroke-width:0.5;" width="218.4277" x="2212.1694" y="1748.7334"/><text fill="#000000" font-family="DejaVu Sans" font-size="12" lengthAdjust="spacing" textLength="198.4277" x="2222.1694" y="1769.8721">Capture evidence and deviations</text><rect fill="#F1F1F1" height="33.9688" rx="12.5" ry="12.5" style="stroke:#181818;stroke-width:0.5;" width="190.4492" x="2226.1587" y="1851.1045"/><text fill="#000000" font-family="DejaVu Sans" font-size="12" lengthAdjust="spacing" textLength="170.4492" x="2236.1587" y="1872.2432">Record insufficient evidence</text><ellipse cx="2321.3833" cy="1925.0576" fill="none" rx="11" ry="11" style="stroke:#222222;stroke-width:1;"/><ellipse cx="2321.3833" cy="1925.0576" fill="#222222" rx="6" ry="6" style="stroke:#222222;stroke-width:1;"/><polygon fill="#F1F1F1" points="2256.5811,1802.7021,2386.1855,1802.7021,2398.1855,1814.7021,2386.1855,1826.7021,2256.5811,1826.7021,2244.5811,1814.7021,2256.5811,1802.7021" style="stroke:#181818;stroke-width:0.5;"/><text fill="#000000" font-family="DejaVu Sans" font-size="11" lengthAdjust="spacing" textLength="13.7017" x="2325.3833" y="1836.9126">no</text><text fill="#000000" font-family="DejaVu Sans" font-size="11" lengthAdjust="spacing" textLength="129.6045" x="2256.5811" y="1818.5103">G6 evidence complete?</text><text fill="#000000" font-family="DejaVu Sans" font-size="11" lengthAdjust="spacing" textLength="19.0083" x="2398.1855" y="1812.1079">yes</text><line style="stroke:#000000;stroke-width:1.5;" x1="2206.1694" x2="2206.1694" y1="50.042" y2="2818.6279"/><rect fill="#F1F1F1" height="33.9688" rx="12.5" ry="12.5" style="stroke:#181818;stroke-width:0.5;" width="236.6445" x="2451.5972" y="1978.0576"/><text fill="#000000" font-family="DejaVu Sans" font-size="12" lengthAdjust="spacing" textLength="216.6445" x="2461.5972" y="1999.1963">Assess residual risk and uncertainty</text><rect fill="#F1F1F1" height="33.9688" rx="12.5" ry="12.5" style="stroke:#181818;stroke-width:0.5;" width="201.084" x="2469.3774" y="2080.4287"/><text fill="#000000" font-family="DejaVu Sans" font-size="12" lengthAdjust="spacing" textLength="181.084" x="2479.3774" y="2101.5674">Do not issue recommendation</text><ellipse cx="2569.9194" cy="2154.3818" fill="none" rx="11" ry="11" style="stroke:#222222;stroke-width:1;"/><ellipse cx="2569.9194" cy="2154.3818" fill="#222222" rx="6" ry="6" style="stroke:#222222;stroke-width:1;"/><polygon fill="#F1F1F1" points="2501.4111,2032.0264,2638.4277,2032.0264,2650.4277,2044.0264,2638.4277,2056.0264,2501.4111,2056.0264,2489.4111,2044.0264,2501.4111,2032.0264" style="stroke:#181818;stroke-width:0.5;"/><text fill="#000000" font-family="DejaVu Sans" font-size="11" lengthAdjust="spacing" textLength="13.7017" x="2573.9194" y="2066.2368">no</text><text fill="#000000" font-family="DejaVu Sans" font-size="11" lengthAdjust="spacing" textLength="137.0166" x="2501.4111" y="2047.8345">G7 disposition recorded?</text><text fill="#000000" font-family="DejaVu Sans" font-size="11" lengthAdjust="spacing" textLength="19.0083" x="2650.4277" y="2041.4321">yes</text><line style="stroke:#000000;stroke-width:1.5;" x1="2445.5972" x2="2445.5972" y1="50.042" y2="2818.6279"/><polygon fill="#F1F1F1" points="3110.0178,2207.3818,3260.6072,2207.3818,3272.6072,2219.3818,3260.6072,2231.3818,3110.0178,2231.3818,3098.0178,2219.3818,3110.0178,2207.3818" style="stroke:#181818;stroke-width:0.5;"/><text fill="#000000" font-family="DejaVu Sans" font-size="11" lengthAdjust="spacing" textLength="150.5894" x="3110.0178" y="2223.1899">Learning proposal created?</text><text fill="#000000" font-family="DejaVu Sans" font-size="11" lengthAdjust="spacing" textLength="19.0083" x="3079.0095" y="2216.7876">yes</text><text fill="#000000" font-family="DejaVu Sans" font-size="11" lengthAdjust="spacing" textLength="13.7017" x="3272.6072" y="2216.7876">no</text><rect fill="#F1F1F1" height="33.9688" rx="12.5" ry="12.5" style="stroke:#181818;stroke-width:0.5;" width="181.9238" x="2887.4263" y="2241.3818"/><text fill="#000000" font-family="DejaVu Sans" font-size="12" lengthAdjust="spacing" textLength="161.9238" x="2897.4263" y="2262.5205">Declare closed sourceType</text><polygon fill="#F1F1F1" points="2880.739,2295.3506,3076.0374,2295.3506,3088.0374,2307.3506,3076.0374,2319.3506,2880.739,2319.3506,2868.739,2307.3506,2880.739,2295.3506" style="stroke:#181818;stroke-width:0.5;"/><text fill="#000000" font-family="DejaVu Sans" font-size="11" lengthAdjust="spacing" textLength="195.2983" x="2880.739" y="2311.1587">sourceType = customer-telemetry?</text><text fill="#000000" font-family="DejaVu Sans" font-size="11" lengthAdjust="spacing" textLength="19.0083" x="2849.7307" y="2304.7563">yes</text><text fill="#000000" font-family="DejaVu Sans" font-size="11" lengthAdjust="spacing" textLength="110.7842" x="3088.0374" y="2304.7563">testbed or synthetic</text><rect fill="#F1F1F1" height="33.9688" rx="12.5" ry="12.5" style="stroke:#181818;stroke-width:0.5;" width="267.3945" x="2710.4785" y="2329.3506"/><text fill="#000000" font-family="DejaVu Sans" font-size="12" lengthAdjust="spacing" textLength="247.3945" x="2720.4785" y="2350.4893">Create immutable Data Release Manifest</text><rect fill="#F1F1F1" height="33.9688" rx="12.5" ry="12.5" style="stroke:#181818;stroke-width:0.5;" width="159.8516" x="2764.25" y="2431.7217"/><text fill="#000000" font-family="DejaVu Sans" font-size="12" lengthAdjust="spacing" textLength="139.8516" x="2774.25" y="2452.8604">Do not reuse telemetry</text><ellipse cx="2844.1758" cy="2511.6904" fill="none" rx="11" ry="11" style="stroke:#222222;stroke-width:1;"/><ellipse cx="2844.1758" cy="2511.6904" fill="#222222" rx="6" ry="6" style="stroke:#222222;stroke-width:1;"/><polygon fill="#F1F1F1" points="2765.7659,2383.3193,2922.5857,2383.3193,2934.5857,2395.3193,2922.5857,2407.3193,2765.7659,2407.3193,2753.7659,2395.3193,2765.7659,2383.3193" style="stroke:#181818;stroke-width:0.5;"/><text fill="#000000" font-family="DejaVu Sans" font-size="11" lengthAdjust="spacing" textLength="13.7017" x="2848.1758" y="2417.5298">no</text><text fill="#000000" font-family="DejaVu Sans" font-size="11" lengthAdjust="spacing" textLength="156.8198" x="2765.7659" y="2399.1274">G8 exact data lot approved?</text><text fill="#000000" font-family="DejaVu Sans" font-size="11" lengthAdjust="spacing" textLength="19.0083" x="2934.5857" y="2392.7251">yes</text><rect fill="#F1F1F1" height="33.9688" rx="12.5" ry="12.5" style="stroke:#181818;stroke-width:0.5;" width="229.4551" x="2997.873" y="2329.3506"/><text fill="#000000" font-family="DejaVu Sans" font-size="12" lengthAdjust="spacing" textLength="209.4551" x="3007.873" y="2350.4893">Record G8 not-applicable rationale</text><polygon fill="#F1F1F1" points="2978.3882,2550.6904,2990.3882,2562.6904,2978.3882,2574.6904,2966.3882,2562.6904,2978.3882,2550.6904" style="stroke:#181818;stroke-width:0.5;"/><rect fill="#F1F1F1" height="33.9688" rx="12.5" ry="12.5" style="stroke:#181818;stroke-width:0.5;" width="175.4258" x="2890.6753" y="2594.6904"/><text fill="#000000" font-family="DejaVu Sans" font-size="12" lengthAdjust="spacing" textLength="155.4258" x="2900.6753" y="2615.8291">Prepare learning proposal</text><polygon fill="#F1F1F1" points="2899.0437,2648.6592,3057.7327,2648.6592,3069.7327,2660.6592,3057.7327,2672.6592,2899.0437,2672.6592,2887.0437,2660.6592,2899.0437,2648.6592" style="stroke:#181818;stroke-width:0.5;"/><text fill="#000000" font-family="DejaVu Sans" font-size="11" lengthAdjust="spacing" textLength="158.689" x="2899.0437" y="2664.4673">G9 expert update approved?</text><text fill="#000000" font-family="DejaVu Sans" font-size="11" lengthAdjust="spacing" textLength="19.0083" x="2868.0354" y="2658.0649">yes</text><text fill="#000000" font-family="DejaVu Sans" font-size="11" lengthAdjust="spacing" textLength="85.0566" x="3069.7327" y="2658.0649">no / conditional</text><rect fill="#F1F1F1" height="33.9688" rx="12.5" ry="12.5" style="stroke:#181818;stroke-width:0.5;" width="271.6367" x="2705.4614" y="2682.6592"/><text fill="#000000" font-family="DejaVu Sans" font-size="12" lengthAdjust="spacing" textLength="251.6367" x="2715.4614" y="2703.7979">Version reversible expert baseline update</text><rect fill="#F1F1F1" height="33.9688" rx="12.5" ry="12.5" style="stroke:#181818;stroke-width:0.5;" width="236.7969" x="2997.0981" y="2682.6592"/><text fill="#000000" font-family="DejaVu Sans" font-size="12" lengthAdjust="spacing" textLength="216.7969" x="3007.0981" y="2703.7979">Retain baseline or request evidence</text><polygon fill="#F1F1F1" points="2978.3882,2722.6279,2990.3882,2734.6279,2978.3882,2746.6279,2966.3882,2734.6279,2978.3882,2722.6279" style="stroke:#181818;stroke-width:0.5;"/><rect fill="#F1F1F1" height="33.9688" rx="12.5" ry="12.5" style="stroke:#181818;stroke-width:0.5;" width="256.6836" x="3263.895" y="2241.3818"/><text fill="#000000" font-family="DejaVu Sans" font-size="12" lengthAdjust="spacing" textLength="236.6836" x="3273.895" y="2262.5205">Record G8/G9 not-applicable rationales</text><polygon fill="#F1F1F1" points="3185.3125,2752.6279,3197.3125,2764.6279,3185.3125,2776.6279,3173.3125,2764.6279,3185.3125,2752.6279" style="stroke:#181818;stroke-width:0.5;"/><ellipse cx="3185.3125" cy="2807.6279" fill="none" rx="11" ry="11" style="stroke:#222222;stroke-width:1;"/><ellipse cx="3185.3125" cy="2807.6279" fill="#222222" rx="6" ry="6" style="stroke:#222222;stroke-width:1;"/><line style="stroke:#000000;stroke-width:1.5;" x1="2699.4614" x2="2699.4614" y1="50.042" y2="2818.6279"/><line style="stroke:#000000;stroke-width:1.5;" x1="3524.5786" x2="3524.5786" y1="50.042" y2="2818.6279"/><line style="stroke:#181818;stroke-width:1;" x1="141.9963" x2="141.9963" y1="95.9951" y2="115.9951"/><polygon fill="#181818" points="137.9963,105.9951,141.9963,115.9951,145.9963,105.9951,141.9963,109.9951" style="stroke:#181818;stroke-width:1;"/><line style="stroke:#181818;stroke-width:1;" x1="141.9963" x2="141.9963" y1="252.335" y2="281.3193"/><polygon fill="#181818" points="137.9963,271.3193,141.9963,281.3193,145.9963,271.3193,141.9963,275.3193" style="stroke:#181818;stroke-width:1;"/><line style="stroke:#181818;stroke-width:1;" x1="141.9963" x2="141.9963" y1="193.9639" y2="218.3662"/><polygon fill="#181818" points="137.9963,208.3662,141.9963,218.3662,145.9963,208.3662,141.9963,212.3662" style="stroke:#181818;stroke-width:1;"/><line style="stroke:#181818;stroke-width:1;" x1="253.9927" x2="426.9253" y1="181.9639" y2="181.9639"/><polygon fill="#181818" points="422.9253,262.335,426.9253,272.335,430.9253,262.335,426.9253,266.335" style="stroke:#181818;stroke-width:1;"/><line style="stroke:#181818;stroke-width:1;" x1="426.9253" x2="426.9253" y1="181.9639" y2="345.3193"/><polygon fill="#181818" points="422.9253,335.3193,426.9253,345.3193,430.9253,335.3193,426.9253,339.3193" style="stroke:#181818;stroke-width:1;"/><line style="stroke:#181818;stroke-width:1;" x1="141.9963" x2="141.9963" y1="149.9639" y2="169.9639"/><polygon fill="#181818" points="137.9963,159.9639,141.9963,169.9639,145.9963,159.9639,141.9963,163.9639" style="stroke:#181818;stroke-width:1;"/><line style="stroke:#181818;stroke-width:1;" x1="141.9963" x2="141.9963" y1="724.4834" y2="753.4678"/><polygon fill="#181818" points="137.9963,743.4678,141.9963,753.4678,145.9963,743.4678,141.9963,747.4678" style="stroke:#181818;stroke-width:1;"/><line style="stroke:#181818;stroke-width:1;" x1="141.9963" x2="141.9963" y1="666.1123" y2="690.5146"/><polygon fill="#181818" points="137.9963,680.5146,141.9963,690.5146,145.9963,680.5146,141.9963,684.5146" style="stroke:#181818;stroke-width:1;"/><line style="stroke:#181818;stroke-width:1;" x1="222.0051" x2="717.5874" y1="654.1123" y2="654.1123"/><polygon fill="#181818" points="713.5874,734.4834,717.5874,744.4834,721.5874,734.4834,717.5874,738.4834" style="stroke:#181818;stroke-width:1;"/><line style="stroke:#181818;stroke-width:1;" x1="717.5874" x2="717.5874" y1="654.1123" y2="817.4678"/><polygon fill="#181818" points="713.5874,807.4678,717.5874,817.4678,721.5874,807.4678,717.5874,811.4678" style="stroke:#181818;stroke-width:1;"/><line style="stroke:#181818;stroke-width:1;" x1="426.9253" x2="426.9253" y1="481.6592" y2="510.1748"/><polygon fill="#181818" points="422.9253,500.1748,426.9253,510.1748,430.9253,500.1748,426.9253,504.1748" style="stroke:#181818;stroke-width:1;"/><line style="stroke:#181818;stroke-width:1;" x1="426.9253" x2="426.9253" y1="423.2881" y2="447.6904"/><polygon fill="#181818" points="422.9253,437.6904,426.9253,447.6904,430.9253,437.6904,426.9253,441.6904" style="stroke:#181818;stroke-width:1;"/><line style="stroke:#181818;stroke-width:1;" x1="475.7361" x2="509.729" y1="411.2881" y2="411.2881"/><polygon fill="#181818" points="505.729,480.1748,509.729,490.1748,513.729,480.1748,509.729,484.1748" style="stroke:#181818;stroke-width:1;"/><line style="stroke:#181818;stroke-width:1;" x1="509.729" x2="509.729" y1="411.2881" y2="554.1748"/><line style="stroke:#181818;stroke-width:1;" x1="509.729" x2="426.9253" y1="554.1748" y2="554.1748"/><line style="stroke:#181818;stroke-width:1;" x1="426.9253" x2="426.9253" y1="554.1748" y2="574.1748"/><polygon fill="#181818" points="422.9253,564.1748,426.9253,574.1748,430.9253,564.1748,426.9253,568.1748" style="stroke:#181818;stroke-width:1;"/><line style="stroke:#181818;stroke-width:1;" x1="426.9253" x2="426.9253" y1="379.2881" y2="399.2881"/><polygon fill="#181818" points="422.9253,389.2881,426.9253,399.2881,430.9253,389.2881,426.9253,393.2881" style="stroke:#181818;stroke-width:1;"/><line style="stroke:#181818;stroke-width:1;" x1="1010.8018" x2="1010.8018" y1="967.7764" y2="996.7607"/><polygon fill="#181818" points="1006.8018,986.7607,1010.8018,996.7607,1014.8018,986.7607,1010.8018,990.7607" style="stroke:#181818;stroke-width:1;"/><line style="stroke:#181818;stroke-width:1;" x1="1010.8018" x2="1010.8018" y1="909.4053" y2="933.8076"/><polygon fill="#181818" points="1006.8018,923.8076,1010.8018,933.8076,1014.8018,923.8076,1010.8018,927.8076" style="stroke:#181818;stroke-width:1;"/><line style="stroke:#181818;stroke-width:1;" x1="1122.5161" x2="1305.8599" y1="897.4053" y2="897.4053"/><polygon fill="#181818" points="1301.8599,977.7764,1305.8599,987.7764,1309.8599,977.7764,1305.8599,981.7764" style="stroke:#181818;stroke-width:1;"/><line style="stroke:#181818;stroke-width:1;" x1="1305.8599" x2="1305.8599" y1="897.4053" y2="1060.7607"/><polygon fill="#181818" points="1301.8599,1050.7607,1305.8599,1060.7607,1309.8599,1050.7607,1305.8599,1054.7607" style="stroke:#181818;stroke-width:1;"/><line style="stroke:#181818;stroke-width:1;" x1="1305.8599" x2="1305.8599" y1="1094.7295" y2="1114.7295"/><polygon fill="#181818" points="1301.8599,1104.7295,1305.8599,1114.7295,1309.8599,1104.7295,1305.8599,1108.7295" style="stroke:#181818;stroke-width:1;"/><line style="stroke:#181818;stroke-width:1;" x1="1528.4736" x2="1528.4736" y1="1251.0693" y2="1280.0537"/><polygon fill="#181818" points="1524.4736,1270.0537,1528.4736,1280.0537,1532.4736,1270.0537,1528.4736,1274.0537" style="stroke:#181818;stroke-width:1;"/><line style="stroke:#181818;stroke-width:1;" x1="1528.4736" x2="1528.4736" y1="1192.6982" y2="1217.1006"/><polygon fill="#181818" points="1524.4736,1207.1006,1528.4736,1217.1006,1532.4736,1207.1006,1528.4736,1211.1006" style="stroke:#181818;stroke-width:1;"/><line style="stroke:#181818;stroke-width:1;" x1="1603.5142" x2="1759.1768" y1="1180.6982" y2="1180.6982"/><polygon fill="#181818" points="1755.1768,1261.0693,1759.1768,1271.0693,1763.1768,1261.0693,1759.1768,1265.0693" style="stroke:#181818;stroke-width:1;"/><line style="stroke:#181818;stroke-width:1;" x1="1759.1768" x2="1759.1768" y1="1180.6982" y2="1344.0537"/><polygon fill="#181818" points="1755.1768,1334.0537,1759.1768,1344.0537,1763.1768,1334.0537,1759.1768,1338.0537" style="stroke:#181818;stroke-width:1;"/><line style="stroke:#181818;stroke-width:1;" x1="1759.1768" x2="1759.1768" y1="1426.4248" y2="1455.4092"/><polygon fill="#181818" points="1755.1768,1445.4092,1759.1768,1455.4092,1763.1768,1445.4092,1759.1768,1449.4092" style="stroke:#181818;stroke-width:1;"/><line style="stroke:#181818;stroke-width:1;" x1="1759.1768" x2="1759.1768" y1="1368.0537" y2="1392.4561"/><polygon fill="#181818" points="1755.1768,1382.4561,1759.1768,1392.4561,1763.1768,1382.4561,1759.1768,1386.4561" style="stroke:#181818;stroke-width:1;"/><line style="stroke:#181818;stroke-width:1;" x1="1868.8394" x2="2048.5044" y1="1356.0537" y2="1356.0537"/><polygon fill="#181818" points="2044.5044,1436.4248,2048.5044,1446.4248,2052.5044,1436.4248,2048.5044,1440.4248" style="stroke:#181818;stroke-width:1;"/><line style="stroke:#181818;stroke-width:1;" x1="2048.5044" x2="2048.5044" y1="1356.0537" y2="1519.4092"/><polygon fill="#181818" points="2044.5044,1509.4092,2048.5044,1519.4092,2052.5044,1509.4092,2048.5044,1513.4092" style="stroke:#181818;stroke-width:1;"/><line style="stroke:#181818;stroke-width:1;" x1="2048.5044" x2="2048.5044" y1="1655.749" y2="1684.7334"/><polygon fill="#181818" points="2044.5044,1674.7334,2048.5044,1684.7334,2052.5044,1674.7334,2048.5044,1678.7334" style="stroke:#181818;stroke-width:1;"/><line style="stroke:#181818;stroke-width:1;" x1="2048.5044" x2="2048.5044" y1="1597.3779" y2="1621.7803"/><polygon fill="#181818" points="2044.5044,1611.7803,2048.5044,1621.7803,2052.5044,1611.7803,2048.5044,1615.7803" style="stroke:#181818;stroke-width:1;"/><line style="stroke:#181818;stroke-width:1;" x1="2123.8403" x2="2321.3833" y1="1585.3779" y2="1585.3779"/><polygon fill="#181818" points="2317.3833,1665.749,2321.3833,1675.749,2325.3833,1665.749,2321.3833,1669.749" style="stroke:#181818;stroke-width:1;"/><line style="stroke:#181818;stroke-width:1;" x1="2321.3833" x2="2321.3833" y1="1585.3779" y2="1748.7334"/><polygon fill="#181818" points="2317.3833,1738.7334,2321.3833,1748.7334,2325.3833,1738.7334,2321.3833,1742.7334" style="stroke:#181818;stroke-width:1;"/><line style="stroke:#181818;stroke-width:1;" x1="2048.5044" x2="2048.5044" y1="1553.3779" y2="1573.3779"/><polygon fill="#181818" points="2044.5044,1563.3779,2048.5044,1573.3779,2052.5044,1563.3779,2048.5044,1567.3779" style="stroke:#181818;stroke-width:1;"/><line style="stroke:#181818;stroke-width:1;" x1="2321.3833" x2="2321.3833" y1="1885.0732" y2="1914.0576"/><polygon fill="#181818" points="2317.3833,1904.0576,2321.3833,1914.0576,2325.3833,1904.0576,2321.3833,1908.0576" style="stroke:#181818;stroke-width:1;"/><line style="stroke:#181818;stroke-width:1;" x1="2321.3833" x2="2321.3833" y1="1826.7021" y2="1851.1045"/><polygon fill="#181818" points="2317.3833,1841.1045,2321.3833,1851.1045,2325.3833,1841.1045,2321.3833,1845.1045" style="stroke:#181818;stroke-width:1;"/><line style="stroke:#181818;stroke-width:1;" x1="2398.1855" x2="2569.9194" y1="1814.7021" y2="1814.7021"/><polygon fill="#181818" points="2565.9194,1895.0732,2569.9194,1905.0732,2573.9194,1895.0732,2569.9194,1899.0732" style="stroke:#181818;stroke-width:1;"/><line style="stroke:#181818;stroke-width:1;" x1="2569.9194" x2="2569.9194" y1="1814.7021" y2="1978.0576"/><polygon fill="#181818" points="2565.9194,1968.0576,2569.9194,1978.0576,2573.9194,1968.0576,2569.9194,1972.0576" style="stroke:#181818;stroke-width:1;"/><line style="stroke:#181818;stroke-width:1;" x1="2321.3833" x2="2321.3833" y1="1782.7021" y2="1802.7021"/><polygon fill="#181818" points="2317.3833,1792.7021,2321.3833,1802.7021,2325.3833,1792.7021,2321.3833,1796.7021" style="stroke:#181818;stroke-width:1;"/><line style="stroke:#181818;stroke-width:1;" x1="2569.9194" x2="2569.9194" y1="2114.3975" y2="2143.3818"/><polygon fill="#181818" points="2565.9194,2133.3818,2569.9194,2143.3818,2573.9194,2133.3818,2569.9194,2137.3818" style="stroke:#181818;stroke-width:1;"/><line style="stroke:#181818;stroke-width:1;" x1="2569.9194" x2="2569.9194" y1="2056.0264" y2="2080.4287"/><polygon fill="#181818" points="2565.9194,2070.4287,2569.9194,2080.4287,2573.9194,2070.4287,2569.9194,2074.4287" style="stroke:#181818;stroke-width:1;"/><line style="stroke:#181818;stroke-width:1;" x1="2650.4277" x2="3185.3125" y1="2044.0264" y2="2044.0264"/><polygon fill="#181818" points="3181.3125,2124.3975,3185.3125,2134.3975,3189.3125,2124.3975,3185.3125,2128.3975" style="stroke:#181818;stroke-width:1;"/><line style="stroke:#181818;stroke-width:1;" x1="3185.3125" x2="3185.3125" y1="2044.0264" y2="2207.3818"/><polygon fill="#181818" points="3181.3125,2197.3818,3185.3125,2207.3818,3189.3125,2197.3818,3185.3125,2201.3818" style="stroke:#181818;stroke-width:1;"/><line style="stroke:#181818;stroke-width:1;" x1="2569.9194" x2="2569.9194" y1="2012.0264" y2="2032.0264"/><polygon fill="#181818" points="2565.9194,2022.0264,2569.9194,2032.0264,2573.9194,2022.0264,2569.9194,2026.0264" style="stroke:#181818;stroke-width:1;"/><line style="stroke:#181818;stroke-width:1;" x1="2844.1758" x2="2844.1758" y1="2465.6904" y2="2500.6904"/><polygon fill="#181818" points="2840.1758,2490.6904,2844.1758,2500.6904,2848.1758,2490.6904,2844.1758,2494.6904" style="stroke:#181818;stroke-width:1;"/><line style="stroke:#181818;stroke-width:1;" x1="2844.1758" x2="2844.1758" y1="2407.3193" y2="2431.7217"/><polygon fill="#181818" points="2840.1758,2421.7217,2844.1758,2431.7217,2848.1758,2421.7217,2844.1758,2425.7217" style="stroke:#181818;stroke-width:1;"/><line style="stroke:#181818;stroke-width:1;" x1="2934.5857" x2="2946.5857" y1="2395.3193" y2="2395.3193"/><polygon fill="#181818" points="2942.5857,2473.2061,2946.5857,2483.2061,2950.5857,2473.2061,2946.5857,2477.2061" style="stroke:#181818;stroke-width:1;"/><line style="stroke:#181818;stroke-width:1;" x1="2946.5857" x2="2946.5857" y1="2395.3193" y2="2562.6904"/><line style="stroke:#181818;stroke-width:1;" x1="2946.5857" x2="2966.3882" y1="2562.6904" y2="2562.6904"/><polygon fill="#181818" points="2956.3882,2558.6904,2966.3882,2562.6904,2956.3882,2566.6904,2960.3882,2562.6904" style="stroke:#181818;stroke-width:1;"/><line style="stroke:#181818;stroke-width:1;" x1="2844.1758" x2="2844.1758" y1="2363.3193" y2="2383.3193"/><polygon fill="#181818" points="2840.1758,2373.3193,2844.1758,2383.3193,2848.1758,2373.3193,2844.1758,2377.3193" style="stroke:#181818;stroke-width:1;"/><line style="stroke:#181818;stroke-width:1;" x1="2868.739" x2="2844.1758" y1="2307.3506" y2="2307.3506"/><line style="stroke:#181818;stroke-width:1;" x1="2844.1758" x2="2844.1758" y1="2307.3506" y2="2329.3506"/><polygon fill="#181818" points="2840.1758,2319.3506,2844.1758,2329.3506,2848.1758,2319.3506,2844.1758,2323.3506" style="stroke:#181818;stroke-width:1;"/><line style="stroke:#181818;stroke-width:1;" x1="3088.0374" x2="3112.6006" y1="2307.3506" y2="2307.3506"/><line style="stroke:#181818;stroke-width:1;" x1="3112.6006" x2="3112.6006" y1="2307.3506" y2="2329.3506"/><polygon fill="#181818" points="3108.6006,2319.3506,3112.6006,2329.3506,3116.6006,2319.3506,3112.6006,2323.3506" style="stroke:#181818;stroke-width:1;"/><line style="stroke:#181818;stroke-width:1;" x1="3112.6006" x2="3112.6006" y1="2363.3193" y2="2562.6904"/><line style="stroke:#181818;stroke-width:1;" x1="3112.6006" x2="2990.3882" y1="2562.6904" y2="2562.6904"/><polygon fill="#181818" points="3000.3882,2558.6904,2990.3882,2562.6904,3000.3882,2566.6904,2996.3882,2562.6904" style="stroke:#181818;stroke-width:1;"/><line style="stroke:#181818;stroke-width:1;" x1="2978.3882" x2="2978.3882" y1="2275.3506" y2="2295.3506"/><polygon fill="#181818" points="2974.3882,2285.3506,2978.3882,2295.3506,2982.3882,2285.3506,2978.3882,2289.3506" style="stroke:#181818;stroke-width:1;"/><line style="stroke:#181818;stroke-width:1;" x1="2978.3882" x2="2978.3882" y1="2574.6904" y2="2594.6904"/><polygon fill="#181818" points="2974.3882,2584.6904,2978.3882,2594.6904,2982.3882,2584.6904,2978.3882,2588.6904" style="stroke:#181818;stroke-width:1;"/><line style="stroke:#181818;stroke-width:1;" x1="2887.0437" x2="2841.2798" y1="2660.6592" y2="2660.6592"/><line style="stroke:#181818;stroke-width:1;" x1="2841.2798" x2="2841.2798" y1="2660.6592" y2="2682.6592"/><polygon fill="#181818" points="2837.2798,2672.6592,2841.2798,2682.6592,2845.2798,2672.6592,2841.2798,2676.6592" style="stroke:#181818;stroke-width:1;"/><line style="stroke:#181818;stroke-width:1;" x1="3069.7327" x2="3115.4966" y1="2660.6592" y2="2660.6592"/><line style="stroke:#181818;stroke-width:1;" x1="3115.4966" x2="3115.4966" y1="2660.6592" y2="2682.6592"/><polygon fill="#181818" points="3111.4966,2672.6592,3115.4966,2682.6592,3119.4966,2672.6592,3115.4966,2676.6592" style="stroke:#181818;stroke-width:1;"/><line style="stroke:#181818;stroke-width:1;" x1="2841.2798" x2="2841.2798" y1="2716.6279" y2="2734.6279"/><line style="stroke:#181818;stroke-width:1;" x1="2841.2798" x2="2966.3882" y1="2734.6279" y2="2734.6279"/><polygon fill="#181818" points="2956.3882,2730.6279,2966.3882,2734.6279,2956.3882,2738.6279,2960.3882,2734.6279" style="stroke:#181818;stroke-width:1;"/><line style="stroke:#181818;stroke-width:1;" x1="3115.4966" x2="3115.4966" y1="2716.6279" y2="2734.6279"/><line style="stroke:#181818;stroke-width:1;" x1="3115.4966" x2="2990.3882" y1="2734.6279" y2="2734.6279"/><polygon fill="#181818" points="3000.3882,2730.6279,2990.3882,2734.6279,3000.3882,2738.6279,2996.3882,2734.6279" style="stroke:#181818;stroke-width:1;"/><line style="stroke:#181818;stroke-width:1;" x1="2978.3882" x2="2978.3882" y1="2628.6592" y2="2648.6592"/><polygon fill="#181818" points="2974.3882,2638.6592,2978.3882,2648.6592,2982.3882,2638.6592,2978.3882,2642.6592" style="stroke:#181818;stroke-width:1;"/><line style="stroke:#181818;stroke-width:1;" x1="3098.0178" x2="2978.3882" y1="2219.3818" y2="2219.3818"/><line style="stroke:#181818;stroke-width:1;" x1="2978.3882" x2="2978.3882" y1="2219.3818" y2="2241.3818"/><polygon fill="#181818" points="2974.3882,2231.3818,2978.3882,2241.3818,2982.3882,2231.3818,2978.3882,2235.3818" style="stroke:#181818;stroke-width:1;"/><line style="stroke:#181818;stroke-width:1;" x1="3272.6072" x2="3392.2368" y1="2219.3818" y2="2219.3818"/><line style="stroke:#181818;stroke-width:1;" x1="3392.2368" x2="3392.2368" y1="2219.3818" y2="2241.3818"/><polygon fill="#181818" points="3388.2368,2231.3818,3392.2368,2241.3818,3396.2368,2231.3818,3392.2368,2235.3818" style="stroke:#181818;stroke-width:1;"/><line style="stroke:#181818;stroke-width:1;" x1="2978.3882" x2="2978.3882" y1="2746.6279" y2="2764.6279"/><line style="stroke:#181818;stroke-width:1;" x1="2978.3882" x2="3173.3125" y1="2764.6279" y2="2764.6279"/><polygon fill="#181818" points="3163.3125,2760.6279,3173.3125,2764.6279,3163.3125,2768.6279,3167.3125,2764.6279" style="stroke:#181818;stroke-width:1;"/><line style="stroke:#181818;stroke-width:1;" x1="3392.2368" x2="3392.2368" y1="2275.3506" y2="2764.6279"/><line style="stroke:#181818;stroke-width:1;" x1="3392.2368" x2="3197.3125" y1="2764.6279" y2="2764.6279"/><polygon fill="#181818" points="3207.3125,2760.6279,3197.3125,2764.6279,3207.3125,2768.6279,3203.3125,2764.6279" style="stroke:#181818;stroke-width:1;"/><line style="stroke:#181818;stroke-width:1;" x1="3185.3125" x2="3185.3125" y1="2776.6279" y2="2796.6279"/><polygon fill="#181818" points="3181.3125,2786.6279,3185.3125,2796.6279,3189.3125,2786.6279,3185.3125,2790.6279" style="stroke:#181818;stroke-width:1;"/><line style="stroke:#181818;stroke-width:1;" x1="426.9253" x2="426.9253" y1="622.1123" y2="627.1123"/><line style="stroke:#181818;stroke-width:1;" x1="426.9253" x2="141.9963" y1="627.1123" y2="627.1123"/><line style="stroke:#181818;stroke-width:1;" x1="141.9963" x2="141.9963" y1="627.1123" y2="642.1123"/><polygon fill="#181818" points="137.9963,632.1123,141.9963,642.1123,145.9963,632.1123,141.9963,636.1123" style="stroke:#181818;stroke-width:1;"/><line style="stroke:#181818;stroke-width:1;" x1="717.5874" x2="717.5874" y1="865.4053" y2="870.4053"/><line style="stroke:#181818;stroke-width:1;" x1="717.5874" x2="1010.8018" y1="870.4053" y2="870.4053"/><line style="stroke:#181818;stroke-width:1;" x1="1010.8018" x2="1010.8018" y1="870.4053" y2="885.4053"/><polygon fill="#181818" points="1006.8018,875.4053,1010.8018,885.4053,1014.8018,875.4053,1010.8018,879.4053" style="stroke:#181818;stroke-width:1;"/><line style="stroke:#181818;stroke-width:1;" x1="1305.8599" x2="1305.8599" y1="1148.6982" y2="1153.6982"/><line style="stroke:#181818;stroke-width:1;" x1="1305.8599" x2="1528.4736" y1="1153.6982" y2="1153.6982"/><line style="stroke:#181818;stroke-width:1;" x1="1528.4736" x2="1528.4736" y1="1153.6982" y2="1168.6982"/><polygon fill="#181818" points="1524.4736,1158.6982,1528.4736,1168.6982,1532.4736,1158.6982,1528.4736,1162.6982" style="stroke:#181818;stroke-width:1;"/><text fill="#000000" font-family="DejaVu Sans" font-size="18" lengthAdjust="spacing" textLength="234.6328" x="32.6799" y="66.75">Sponsor &amp; Source Owners</text><text fill="#000000" font-family="DejaVu Sans" font-size="18" lengthAdjust="spacing" textLength="169.708" x="341.0713" y="66.75">Engineering Inputs</text><text fill="#000000" font-family="DejaVu Sans" font-size="18" lengthAdjust="spacing" textLength="289.459" x="571.8579" y="66.75">Assistant / Engineering Platform</text><text fill="#000000" font-family="DejaVu Sans" font-size="18" lengthAdjust="spacing" textLength="294.9697" x="871.3169" y="66.75">Architecture &amp; Industrial Experts</text><text fill="#000000" font-family="DejaVu Sans" font-size="18" lengthAdjust="spacing" textLength="150.3105" x="1229.7046" y="66.75">Assistant / CI-CD</text><text fill="#000000" font-family="DejaVu Sans" font-size="18" lengthAdjust="spacing" textLength="164.2939" x="1454.3267" y="66.75">Platform / DevOps</text><text fill="#000000" font-family="DejaVu Sans" font-size="18" lengthAdjust="spacing" textLength="124.9893" x="1704.6821" y="66.75">Cybersecurity</text><text fill="#000000" font-family="DejaVu Sans" font-size="18" lengthAdjust="spacing" textLength="163.1689" x="1971.4199" y="66.75">Integration &amp; Test</text><text fill="#000000" font-family="DejaVu Sans" font-size="18" lengthAdjust="spacing" textLength="191.6104" x="2230.0781" y="66.75">OTEL / Test Authority</text><text fill="#000000" font-family="DejaVu Sans" font-size="18" lengthAdjust="spacing" textLength="160.1719" x="2492.4434" y="66.75">Release Authority</text><text fill="#000000" font-family="DejaVu Sans" font-size="18" lengthAdjust="spacing" textLength="242.0684" x="2990.9858" y="66.75">Data &amp; Expert Governance</text><?plantuml-src ZLNRRXit47tVhvYYG603DkBUKmb5uKYEO22s1CbmN_92SMSbnboIuKME03_q8_g5_P8USbUseCPEu0SBIywPCsVE3BzpNgnQGLfiROeKMex2Y2hSAUE45oqjXRnRUPjCFRBQUlh-tGX_vtitmbhKzbwP5JL21zuxgRaHISTtriHhqJAD-QEuJRGG9bHHHStqTdPrJIExOR1WkbLyJ__-_G_DrY8mdPtGvEnqyZi9KzCaNp9SqtiMtY1RLJqid3K1d5xHmYOlcQRtXdrug48KFbQ31MkMaPQPFI8RSCeq9S27bMheQ796BS15v98Z59H0mZcFTFMVnnJNREXeo-6uOXH7HyOULqI3HRIEaDfpHWKSKS2dYasj6b2xC2jbc7tETsbSYc0r66aHWcgs51XfevA84J65aXn7gNLHeQIUt0-aIYGrAhv0PSx1wWtJIhYGAMKU1tm6Lon2yenk1jOWLZAYFVbdN7iEQwlhSFB1B5EzubYEeK6qqkhXIqfdehCpSgLX_5d5RnBlPZhBJA_Fv_FfNoIQo7xNdVyfUGx989E9z9hsLPrf4Hlhswohvzp2XTKfwqTNmgY6GpoXjzCh4XhmHaIruV31vCfuesesgC8kjLg9NlE7So_NAi8nMQbNQ5kTGlHAQBhuxDZ7ljp9Znrixjb-X92INNony3b_p8OillcKm13_DoeW_ujbZovFHsFKEM68dYkz5ACJYeZlh5DRcLesiLGoh0RpPD1SL0r10GAVoJNBkrpZJZMWZdapTRkQVigOz2a9hUAM7CpubK9GiYany52DVeI32Xv6soKSmZ9v8FPPVYQPltR3bfpJMp0JodnpmXtUSrchXqiJUUMB4kZX3JI2S6DsscvBsgmQveeKXWPITX-MNFSpzmjCZ1mbN7gkrLBpYxIazTWiGcb0eQ_9U7QOfwuR6tw2EzHdUdFn7bt83EaynRNjT1gCX2jsUZHfDweR9VPtmwzFvzAsJgFRNwUfJ4XDewG2kyVuGrvpBCqypFkSO4OE0MODgeP5oAjmLtWb0FY83iPjJ-mtgbLmDgWYeI-9N-pis9AnQ0dM7vVxBQnSY_YbeHYBAD3LRXpx9q60GcUltSkGDnSOWASiY-4WUyx9KWjeBBM5xVgzVxDrHOmCzVI5_Y29DM1RzgSHqk21zDj3G43sEqYrROe2fg72TIVcRYCDo-KYr1jOGs0PrFcUjiyjpdn_Nw-IhDVCSyB18wjXVrmaAt55jbryR_JoH6mDKc0nzEHxVu0JO4z1H2jPYkW6IUWYp0vkC8F7itpwKF2TV7YpkUjHSjth-cnjWrjiYSugc_mhP-rZ7n-h3cHOFIc1mP4MT3fsZrLa9pw5xQtPVRDtPNnfFYPlNeFvSn9WzBhGhEz_?></g></svg>