<?plantuml 1.2026.1?><svg xmlns="http://www.w3.org/2000/svg" xmlns:xlink="http://www.w3.org/1999/xlink" contentStyleType="text/css" data-diagram-type="SEQUENCE" height="1269px" preserveAspectRatio="none" style="width:2088px;height:1269px;background:#FCFCFA;" version="1.1" viewBox="0 0 2088 1269" width="2088px" zoomAndPan="magnify"><title>UML Sequence &#8212; Framing and Evidence-Producing Delivery (G0-G7)</title><defs/><g><rect fill="#FCFCFA" height="1269" style="stroke:none;stroke-width:1;" width="2088" x="0" y="0"/><text fill="#000000" font-family="DejaVu Sans" font-size="14" font-weight="bold" lengthAdjust="spacing" textLength="536.7578" x="775.3145" y="27.9951">UML Sequence &#8212; Framing and Evidence-Producing Delivery (G0-G7)</text><g class="participant-lifeline" data-entity-uid="part1" data-qualified-name="Sponsor" id="part1-lifeline"><g><title>Sponsor</title><rect fill="#000000" fill-opacity="0.00000" height="1069.6484" width="8" x="32.4136" y="118.5938"/><line style="stroke:#181818;stroke-width:0.5;stroke-dasharray:5,5;" x1="36" x2="36" y1="118.5938" y2="1188.2422"/></g></g><g class="participant-lifeline" data-entity-uid="part2" data-qualified-name="Engineer" id="part2-lifeline"><g><title>Engineer</title><rect fill="#000000" fill-opacity="0.00000" height="1069.6484" width="8" x="108.0024" y="118.5938"/><line style="stroke:#181818;stroke-width:0.5;stroke-dasharray:5,5;" x1="111.8271" x2="111.8271" y1="118.5938" y2="1188.2422"/></g></g><g class="participant-lifeline" data-entity-uid="part3" data-qualified-name="AI" id="part3-lifeline"><g><title>MTP-to-Run</title><rect fill="#000000" fill-opacity="0.00000" height="1069.6484" width="8" x="437.0708" y="118.5938"/><line style="stroke:#181818;stroke-width:0.5;stroke-dasharray:5,5;" x1="440.7183" x2="440.7183" y1="118.5938" y2="1188.2422"/></g></g><g class="participant-lifeline" data-entity-uid="part4" data-qualified-name="Gate" id="part4-lifeline"><g><title>Human Gate</title><rect fill="#000000" fill-opacity="0.00000" height="1069.6484" width="8" x="545.6587" y="118.5938"/><line style="stroke:#181818;stroke-width:0.5;stroke-dasharray:5,5;" x1="549.4233" x2="549.4233" y1="118.5938" y2="1188.2422"/></g></g><g class="participant-lifeline" data-entity-uid="part5" data-qualified-name="CI" id="part5-lifeline"><g><title>CI.CD</title><rect fill="#000000" fill-opacity="0.00000" height="1069.6484" width="8" x="850.625" y="118.5938"/><line style="stroke:#181818;stroke-width:0.5;stroke-dasharray:5,5;" x1="854.0366" x2="854.0366" y1="118.5938" y2="1188.2422"/></g></g><g class="participant-lifeline" data-entity-uid="part6" data-qualified-name="TB" id="part6-lifeline"><g><title>Testbed</title><rect fill="#000000" fill-opacity="0.00000" height="1069.6484" width="8" x="1218.7822" y="118.5938"/><line style="stroke:#181818;stroke-width:0.5;stroke-dasharray:5,5;" x1="1222.6147" x2="1222.6147" y1="118.5938" y2="1188.2422"/></g></g><g class="participant-lifeline" data-entity-uid="part7" data-qualified-name="EV" id="part7-lifeline"><g><title>OTEL . Evidence</title><rect fill="#000000" fill-opacity="0.00000" height="1069.6484" width="8" x="1546.1494" y="118.5938"/><line style="stroke:#181818;stroke-width:0.5;stroke-dasharray:5,5;" x1="1549.3804" x2="1549.3804" y1="118.5938" y2="1188.2422"/></g></g><g class="participant-lifeline" data-entity-uid="part8" data-qualified-name="TA" id="part8-lifeline"><g><title>Test and Release</title><rect fill="#000000" fill-opacity="0.00000" height="1069.6484" width="8" x="1835.6885" y="118.5938"/><line style="stroke:#181818;stroke-width:0.5;stroke-dasharray:5,5;" x1="1839.4297" x2="1839.4297" y1="118.5938" y2="1188.2422"/></g></g><g class="participant participant-head" data-entity-uid="part1" data-qualified-name="Sponsor" id="part1-head"><text fill="#000000" font-family="DejaVu Sans" font-size="14" lengthAdjust="spacing" textLength="56.8271" x="5" y="115.292">Sponsor</text><ellipse cx="36.4136" cy="50.7969" fill="#E2E2F0" rx="8" ry="8" style="stroke:#181818;stroke-width:0.5;"/><path d="M36.4136,58.7969 L36.4136,85.7969 M23.4136,66.7969 L49.4136,66.7969 M36.4136,85.7969 L23.4136,100.7969 M36.4136,85.7969 L49.4136,100.7969" fill="none" style="stroke:#181818;stroke-width:0.5;"/></g><g class="participant participant-tail" data-entity-uid="part1" data-qualified-name="Sponsor" id="part1-tail"><text fill="#000000" font-family="DejaVu Sans" font-size="14" lengthAdjust="spacing" textLength="56.8271" x="5" y="1200.2373">Sponsor</text><ellipse cx="36.4136" cy="1212.0391" fill="#E2E2F0" rx="8" ry="8" style="stroke:#181818;stroke-width:0.5;"/><path d="M36.4136,1220.0391 L36.4136,1247.0391 M23.4136,1228.0391 L49.4136,1228.0391 M36.4136,1247.0391 L23.4136,1262.0391 M36.4136,1247.0391 L49.4136,1262.0391" fill="none" style="stroke:#181818;stroke-width:0.5;"/></g><g class="participant participant-head" data-entity-uid="part2" data-qualified-name="Engineer" id="part2-head"><text fill="#000000" font-family="DejaVu Sans" font-size="14" lengthAdjust="spacing" textLength="62.3506" x="77.8271" y="115.292">Engineer</text><ellipse cx="112.0024" cy="50.7969" fill="#E2E2F0" rx="8" ry="8" style="stroke:#181818;stroke-width:0.5;"/><path d="M112.0024,58.7969 L112.0024,85.7969 M99.0024,66.7969 L125.0024,66.7969 M112.0024,85.7969 L99.0024,100.7969 M112.0024,85.7969 L125.0024,100.7969" fill="none" style="stroke:#181818;stroke-width:0.5;"/></g><g class="participant participant-tail" data-entity-uid="part2" data-qualified-name="Engineer" id="part2-tail"><text fill="#000000" font-family="DejaVu Sans" font-size="14" lengthAdjust="spacing" textLength="62.3506" x="77.8271" y="1200.2373">Engineer</text><ellipse cx="112.0024" cy="1212.0391" fill="#E2E2F0" rx="8" ry="8" style="stroke:#181818;stroke-width:0.5;"/><path d="M112.0024,1220.0391 L112.0024,1247.0391 M99.0024,1228.0391 L125.0024,1228.0391 M112.0024,1247.0391 L99.0024,1262.0391 M112.0024,1247.0391 L125.0024,1262.0391" fill="none" style="stroke:#181818;stroke-width:0.5;"/></g><g class="participant participant-head" data-entity-uid="part3" data-qualified-name="AI" id="part3-head"><rect fill="#E2E2F0" height="46.5938" rx="2.5" ry="2.5" style="stroke:#181818;stroke-width:0.5;" width="94.7051" x="393.7183" y="71"/><text fill="#000000" font-family="DejaVu Sans" font-size="14" lengthAdjust="spacing" textLength="80.7051" x="400.7183" y="90.9951">MTP-to-Run</text><text fill="#000000" font-family="DejaVu Sans" font-size="14" lengthAdjust="spacing" textLength="63.7793" x="409.1812" y="107.292">Assistant</text></g><g class="participant participant-tail" data-entity-uid="part3" data-qualified-name="AI" id="part3-tail"><rect fill="#E2E2F0" height="46.5938" rx="2.5" ry="2.5" style="stroke:#181818;stroke-width:0.5;" width="94.7051" x="393.7183" y="1187.2422"/><text fill="#000000" font-family="DejaVu Sans" font-size="14" lengthAdjust="spacing" textLength="80.7051" x="400.7183" y="1207.2373">MTP-to-Run</text><text fill="#000000" font-family="DejaVu Sans" font-size="14" lengthAdjust="spacing" textLength="63.7793" x="409.1812" y="1223.5342">Assistant</text></g><g class="participant participant-head" data-entity-uid="part4" data-qualified-name="Gate" id="part4-head"><rect fill="#E2E2F0" height="46.5938" rx="2.5" ry="2.5" style="stroke:#181818;stroke-width:0.5;" width="102.4707" x="498.4233" y="71"/><text fill="#000000" font-family="DejaVu Sans" font-size="14" lengthAdjust="spacing" textLength="88.4707" x="505.4233" y="90.9951">Human Gate</text><text fill="#000000" font-family="DejaVu Sans" font-size="14" lengthAdjust="spacing" textLength="51.7412" x="523.7881" y="107.292">Service</text></g><g class="participant participant-tail" data-entity-uid="part4" data-qualified-name="Gate" id="part4-tail"><rect fill="#E2E2F0" height="46.5938" rx="2.5" ry="2.5" style="stroke:#181818;stroke-width:0.5;" width="102.4707" x="498.4233" y="1187.2422"/><text fill="#000000" font-family="DejaVu Sans" font-size="14" lengthAdjust="spacing" textLength="88.4707" x="505.4233" y="1207.2373">Human Gate</text><text fill="#000000" font-family="DejaVu Sans" font-size="14" lengthAdjust="spacing" textLength="51.7412" x="523.7881" y="1223.5342">Service</text></g><g class="participant participant-head" data-entity-uid="part5" data-qualified-name="CI" id="part5-head"><rect fill="#E2E2F0" height="30.2969" rx="2.5" ry="2.5" style="stroke:#181818;stroke-width:0.5;" width="53.1768" x="828.0366" y="87.2969"/><text fill="#000000" font-family="DejaVu Sans" font-size="14" lengthAdjust="spacing" textLength="39.1768" x="835.0366" y="107.292">CI/CD</text></g><g class="participant participant-tail" data-entity-uid="part5" data-qualified-name="CI" id="part5-tail"><rect fill="#E2E2F0" height="30.2969" rx="2.5" ry="2.5" style="stroke:#181818;stroke-width:0.5;" width="53.1768" x="828.0366" y="1187.2422"/><text fill="#000000" font-family="DejaVu Sans" font-size="14" lengthAdjust="spacing" textLength="39.1768" x="835.0366" y="1207.2373">CI/CD</text></g><g class="participant participant-head" data-entity-uid="part6" data-qualified-name="TB" id="part6-head"><rect fill="#E2E2F0" height="30.2969" rx="2.5" ry="2.5" style="stroke:#181818;stroke-width:0.5;" width="70.335" x="1187.6147" y="87.2969"/><text fill="#000000" font-family="DejaVu Sans" font-size="14" lengthAdjust="spacing" textLength="56.335" x="1194.6147" y="107.292">Testbed</text></g><g class="participant participant-tail" data-entity-uid="part6" data-qualified-name="TB" id="part6-tail"><rect fill="#E2E2F0" height="30.2969" rx="2.5" ry="2.5" style="stroke:#181818;stroke-width:0.5;" width="70.335" x="1187.6147" y="1187.2422"/><text fill="#000000" font-family="DejaVu Sans" font-size="14" lengthAdjust="spacing" textLength="56.335" x="1194.6147" y="1207.2373">Testbed</text></g><g class="participant participant-head" data-entity-uid="part7" data-qualified-name="EV" id="part7-head"><rect fill="#E2E2F0" height="30.2969" rx="2.5" ry="2.5" style="stroke:#181818;stroke-width:0.5;" width="127.5381" x="1486.3804" y="87.2969"/><text fill="#000000" font-family="DejaVu Sans" font-size="14" lengthAdjust="spacing" textLength="113.5381" x="1493.3804" y="107.292">OTEL / Evidence</text></g><g class="participant participant-tail" data-entity-uid="part7" data-qualified-name="EV" id="part7-tail"><rect fill="#E2E2F0" height="30.2969" rx="2.5" ry="2.5" style="stroke:#181818;stroke-width:0.5;" width="127.5381" x="1486.3804" y="1187.2422"/><text fill="#000000" font-family="DejaVu Sans" font-size="14" lengthAdjust="spacing" textLength="113.5381" x="1493.3804" y="1207.2373">OTEL / Evidence</text></g><g class="participant participant-head" data-entity-uid="part8" data-qualified-name="TA" id="part8-head"><rect fill="#E2E2F0" height="46.5938" rx="2.5" ry="2.5" style="stroke:#181818;stroke-width:0.5;" width="134.5176" x="1772.4297" y="71"/><text fill="#000000" font-family="DejaVu Sans" font-size="14" lengthAdjust="spacing" textLength="120.5176" x="1779.4297" y="90.9951">Test and Release</text><text fill="#000000" font-family="DejaVu Sans" font-size="14" lengthAdjust="spacing" textLength="76.3096" x="1801.5337" y="107.292">Authorities</text></g><g class="participant participant-tail" data-entity-uid="part8" data-qualified-name="TA" id="part8-tail"><rect fill="#E2E2F0" height="46.5938" rx="2.5" ry="2.5" style="stroke:#181818;stroke-width:0.5;" width="134.5176" x="1772.4297" y="1187.2422"/><text fill="#000000" font-family="DejaVu Sans" font-size="14" lengthAdjust="spacing" textLength="120.5176" x="1779.4297" y="1207.2373">Test and Release</text><text fill="#000000" font-family="DejaVu Sans" font-size="14" lengthAdjust="spacing" textLength="76.3096" x="1801.5337" y="1223.5342">Authorities</text></g><g class="message" data-entity-1="part1" data-entity-2="part4" id="msg1"><polygon fill="#181818" points="537.6587,145.7266,547.6587,149.7266,537.6587,153.7266,541.6587,149.7266" style="stroke:#181818;stroke-width:1;"/><line style="stroke:#181818;stroke-width:1;" x1="36.4136" x2="543.6587" y1="149.7266" y2="149.7266"/><text fill="#000000" font-family="DejaVu Sans" font-size="13" lengthAdjust="spacing" textLength="231.1182" x="43.4136" y="144.6606">G0 mandate, sources and authority</text></g><g class="message" data-entity-1="part4" data-entity-2="part1" id="msg2"><polygon fill="#181818" points="47.4136,174.8594,37.4136,178.8594,47.4136,182.8594,43.4136,178.8594" style="stroke:#181818;stroke-width:1;"/><line style="stroke:#181818;stroke-width:1;stroke-dasharray:2,2;" x1="41.4136" x2="548.6587" y1="178.8594" y2="178.8594"/><text fill="#000000" font-family="DejaVu Sans" font-size="13" lengthAdjust="spacing" textLength="158.6597" x="53.4136" y="173.7935">Auditable G0 disposition</text></g><g class="message" data-entity-1="part2" data-entity-2="part3" id="msg3"><polygon fill="#181818" points="429.0708,203.9922,439.0708,207.9922,429.0708,211.9922,433.0708,207.9922" style="stroke:#181818;stroke-width:1;"/><line style="stroke:#181818;stroke-width:1;" x1="112.0024" x2="435.0708" y1="207.9922" y2="207.9922"/><text fill="#000000" font-family="DejaVu Sans" font-size="13" lengthAdjust="spacing" textLength="268.4995" x="119.0024" y="202.9263">Classify selected inputs and assumptions</text></g><g class="message" data-entity-1="part2" data-entity-2="part4" id="msg4"><polygon fill="#181818" points="537.6587,233.125,547.6587,237.125,537.6587,241.125,541.6587,237.125" style="stroke:#181818;stroke-width:1;"/><line style="stroke:#181818;stroke-width:1;" x1="112.0024" x2="543.6587" y1="237.125" y2="237.125"/><text fill="#000000" font-family="DejaVu Sans" font-size="13" lengthAdjust="spacing" textLength="208.6094" x="119.0024" y="232.0591">Request G1 input-fitness review</text></g><g class="message" data-entity-1="part4" data-entity-2="part2" id="msg5"><polygon fill="#181818" points="123.0024,262.2578,113.0024,266.2578,123.0024,270.2578,119.0024,266.2578" style="stroke:#181818;stroke-width:1;"/><line style="stroke:#181818;stroke-width:1;stroke-dasharray:2,2;" x1="117.0024" x2="548.6587" y1="266.2578" y2="266.2578"/><text fill="#000000" font-family="DejaVu Sans" font-size="13" lengthAdjust="spacing" textLength="158.6597" x="129.0024" y="261.1919">Auditable G1 disposition</text></g><g class="message" data-entity-1="part2" data-entity-2="part4" id="msg6"><polygon fill="#181818" points="537.6587,291.3906,547.6587,295.3906,537.6587,299.3906,541.6587,295.3906" style="stroke:#181818;stroke-width:1;"/><line style="stroke:#181818;stroke-width:1;" x1="112.0024" x2="543.6587" y1="295.3906" y2="295.3906"/><text fill="#000000" font-family="DejaVu Sans" font-size="13" lengthAdjust="spacing" textLength="321.6357" x="119.0024" y="290.3247">Submit baseline, thresholds, budget and protocol</text></g><g class="message" data-entity-1="part1" data-entity-2="part4" id="msg7"><polygon fill="#181818" points="537.6587,320.5234,547.6587,324.5234,537.6587,328.5234,541.6587,324.5234" style="stroke:#181818;stroke-width:1;"/><line style="stroke:#181818;stroke-width:1;" x1="36.4136" x2="543.6587" y1="324.5234" y2="324.5234"/><text fill="#000000" font-family="DejaVu Sans" font-size="13" lengthAdjust="spacing" textLength="137.1538" x="43.4136" y="319.4575">Decide P0 phase exit</text></g><g class="message" data-entity-1="part4" data-entity-2="part2" id="msg8"><polygon fill="#181818" points="123.0024,349.6563,113.0024,353.6563,123.0024,357.6563,119.0024,353.6563" style="stroke:#181818;stroke-width:1;"/><line style="stroke:#181818;stroke-width:1;stroke-dasharray:2,2;" x1="117.0024" x2="548.6587" y1="353.6563" y2="353.6563"/><text fill="#000000" font-family="DejaVu Sans" font-size="13" lengthAdjust="spacing" textLength="176.5728" x="129.0024" y="348.5903">P0 proceed, narrow or stop</text></g><g class="message" data-entity-1="part2" data-entity-2="part3" id="msg9"><polygon fill="#181818" points="429.0708,378.7891,439.0708,382.7891,429.0708,386.7891,433.0708,382.7891" style="stroke:#181818;stroke-width:1;"/><line style="stroke:#181818;stroke-width:1;" x1="112.0024" x2="435.0708" y1="382.7891" y2="382.7891"/><text fill="#000000" font-family="DejaVu Sans" font-size="13" lengthAdjust="spacing" textLength="259.0669" x="119.0024" y="377.7231">Request manifest and BOM alternatives</text></g><g class="message" data-entity-1="part3" data-entity-2="part2" id="msg10"><polygon fill="#181818" points="123.0024,407.9219,113.0024,411.9219,123.0024,415.9219,119.0024,411.9219" style="stroke:#181818;stroke-width:1;"/><line style="stroke:#181818;stroke-width:1;stroke-dasharray:2,2;" x1="117.0024" x2="440.0708" y1="411.9219" y2="411.9219"/><text fill="#000000" font-family="DejaVu Sans" font-size="13" lengthAdjust="spacing" textLength="305.0684" x="129.0024" y="406.856">Candidate, trade-offs and evidence obligations</text></g><g class="message" data-entity-1="part2" data-entity-2="part4" id="msg11"><polygon fill="#181818" points="537.6587,437.0547,547.6587,441.0547,537.6587,445.0547,541.6587,441.0547" style="stroke:#181818;stroke-width:1;"/><line style="stroke:#181818;stroke-width:1;" x1="112.0024" x2="543.6587" y1="441.0547" y2="441.0547"/><text fill="#000000" font-family="DejaVu Sans" font-size="13" lengthAdjust="spacing" textLength="241.3887" x="119.0024" y="435.9888">Request G2 architecture/BOM review</text></g><g class="message" data-entity-1="part4" data-entity-2="part2" id="msg12"><polygon fill="#181818" points="123.0024,466.1875,113.0024,470.1875,123.0024,474.1875,119.0024,470.1875" style="stroke:#181818;stroke-width:1;"/><line style="stroke:#181818;stroke-width:1;stroke-dasharray:2,2;" x1="117.0024" x2="548.6587" y1="470.1875" y2="470.1875"/><text fill="#000000" font-family="DejaVu Sans" font-size="13" lengthAdjust="spacing" textLength="158.6597" x="129.0024" y="465.1216">Auditable G2 disposition</text></g><g class="message" data-entity-1="part2" data-entity-2="part3" id="msg13"><polygon fill="#181818" points="429.0708,495.3203,439.0708,499.3203,429.0708,503.3203,433.0708,499.3203" style="stroke:#181818;stroke-width:1;"/><line style="stroke:#181818;stroke-width:1;" x1="112.0024" x2="435.0708" y1="499.3203" y2="499.3203"/><text fill="#000000" font-family="DejaVu Sans" font-size="13" lengthAdjust="spacing" textLength="291.7256" x="119.0024" y="494.2544">Request IaC, tests and documentation drafts</text></g><g class="message" data-entity-1="part3" data-entity-2="part2" id="msg14"><polygon fill="#181818" points="123.0024,524.4531,113.0024,528.4531,123.0024,532.4531,119.0024,528.4531" style="stroke:#181818;stroke-width:1;"/><line style="stroke:#181818;stroke-width:1;stroke-dasharray:2,2;" x1="117.0024" x2="440.0708" y1="528.4531" y2="528.4531"/><text fill="#000000" font-family="DejaVu Sans" font-size="13" lengthAdjust="spacing" textLength="189.814" x="129.0024" y="523.3872">Pull request with provenance</text></g><g class="message" data-entity-1="part2" data-entity-2="part5" id="msg15"><polygon fill="#181818" points="842.625,553.5859,852.625,557.5859,842.625,561.5859,846.625,557.5859" style="stroke:#181818;stroke-width:1;"/><line style="stroke:#181818;stroke-width:1;" x1="112.0024" x2="848.625" y1="557.5859" y2="557.5859"/><text fill="#000000" font-family="DejaVu Sans" font-size="13" lengthAdjust="spacing" textLength="178.439" x="119.0024" y="552.52">Submit reviewed candidate</text></g><g class="message" data-entity-1="part5" data-entity-2="part5" id="msg16"><line style="stroke:#181818;stroke-width:1;" x1="854.625" x2="896.625" y1="586.7188" y2="586.7188"/><line style="stroke:#181818;stroke-width:1;" x1="896.625" x2="896.625" y1="586.7188" y2="599.7188"/><line style="stroke:#181818;stroke-width:1;" x1="855.625" x2="896.625" y1="599.7188" y2="599.7188"/><polygon fill="#181818" points="865.625,595.7188,855.625,599.7188,865.625,603.7188,861.625,599.7188" style="stroke:#181818;stroke-width:1;"/><text fill="#000000" font-family="DejaVu Sans" font-size="13" lengthAdjust="spacing" textLength="270.8354" x="861.625" y="581.6528">Schema, lint, unit, policy and plan checks</text></g><g class="message" data-entity-1="part5" data-entity-2="part4" id="msg17"><polygon fill="#181818" points="560.6587,624.8516,550.6587,628.8516,560.6587,632.8516,556.6587,628.8516" style="stroke:#181818;stroke-width:1;"/><line style="stroke:#181818;stroke-width:1;" x1="554.6587" x2="853.625" y1="628.8516" y2="628.8516"/><text fill="#000000" font-family="DejaVu Sans" font-size="13" lengthAdjust="spacing" textLength="224.3008" x="566.6587" y="623.7856">Request G3 IaC-quality disposition</text></g><g class="message" data-entity-1="part4" data-entity-2="part5" id="msg18"><polygon fill="#181818" points="842.625,653.9844,852.625,657.9844,842.625,661.9844,846.625,657.9844" style="stroke:#181818;stroke-width:1;"/><line style="stroke:#181818;stroke-width:1;stroke-dasharray:2,2;" x1="549.6587" x2="848.625" y1="657.9844" y2="657.9844"/><text fill="#000000" font-family="DejaVu Sans" font-size="13" lengthAdjust="spacing" textLength="167.9209" x="556.6587" y="652.9185">G3 conditions or rejection</text></g><g class="message" data-entity-1="part5" data-entity-2="part5" id="msg19"><line style="stroke:#181818;stroke-width:1;" x1="854.625" x2="896.625" y1="687.1172" y2="687.1172"/><line style="stroke:#181818;stroke-width:1;" x1="896.625" x2="896.625" y1="687.1172" y2="700.1172"/><line style="stroke:#181818;stroke-width:1;" x1="855.625" x2="896.625" y1="700.1172" y2="700.1172"/><polygon fill="#181818" points="865.625,696.1172,855.625,700.1172,865.625,704.1172,861.625,700.1172" style="stroke:#181818;stroke-width:1;"/><text fill="#000000" font-family="DejaVu Sans" font-size="13" lengthAdjust="spacing" textLength="303.9194" x="861.625" y="682.0513">SBOM, secret, licence and vulnerability checks</text></g><g class="message" data-entity-1="part5" data-entity-2="part4" id="msg20"><polygon fill="#181818" points="560.6587,725.25,550.6587,729.25,560.6587,733.25,556.6587,729.25" style="stroke:#181818;stroke-width:1;"/><line style="stroke:#181818;stroke-width:1;" x1="554.6587" x2="853.625" y1="729.25" y2="729.25"/><text fill="#000000" font-family="DejaVu Sans" font-size="13" lengthAdjust="spacing" textLength="277.0054" x="566.6587" y="724.1841">Request independent G4 cyber disposition</text></g><g class="message" data-entity-1="part4" data-entity-2="part5" id="msg21"><polygon fill="#181818" points="842.625,754.3828,852.625,758.3828,842.625,762.3828,846.625,758.3828" style="stroke:#181818;stroke-width:1;"/><line style="stroke:#181818;stroke-width:1;stroke-dasharray:2,2;" x1="549.6587" x2="848.625" y1="758.3828" y2="758.3828"/><text fill="#000000" font-family="DejaVu Sans" font-size="13" lengthAdjust="spacing" textLength="167.9209" x="556.6587" y="753.3169">G4 conditions or rejection</text></g><g class="message" data-entity-1="part5" data-entity-2="part6" id="msg22"><polygon fill="#181818" points="1210.7822,783.5156,1220.7822,787.5156,1210.7822,791.5156,1214.7822,787.5156" style="stroke:#181818;stroke-width:1;"/><line style="stroke:#181818;stroke-width:1;" x1="854.625" x2="1216.7822" y1="787.5156" y2="787.5156"/><text fill="#000000" font-family="DejaVu Sans" font-size="13" lengthAdjust="spacing" textLength="230.3438" x="861.625" y="782.4497">Apply candidate in isolated testbed</text></g><g class="message" data-entity-1="part5" data-entity-2="part6" id="msg23"><polygon fill="#181818" points="1210.7822,812.6484,1220.7822,816.6484,1210.7822,820.6484,1214.7822,816.6484" style="stroke:#181818;stroke-width:1;"/><line style="stroke:#181818;stroke-width:1;" x1="854.625" x2="1216.7822" y1="816.6484" y2="816.6484"/><text fill="#000000" font-family="DejaVu Sans" font-size="13" lengthAdjust="spacing" textLength="344.1572" x="861.625" y="811.5825">Execute health, performance, resilience and rollback</text></g><g class="message" data-entity-1="part6" data-entity-2="part7" id="msg24"><polygon fill="#181818" points="1538.1494,841.7813,1548.1494,845.7813,1538.1494,849.7813,1542.1494,845.7813" style="stroke:#181818;stroke-width:1;"/><line style="stroke:#181818;stroke-width:1;" x1="1222.7822" x2="1544.1494" y1="845.7813" y2="845.7813"/><text fill="#000000" font-family="DejaVu Sans" font-size="13" lengthAdjust="spacing" textLength="303.3672" x="1229.7822" y="840.7153">Traces, logs, metrics, events and observations</text></g><g class="message" data-entity-1="part5" data-entity-2="part4" id="msg25"><polygon fill="#181818" points="560.6587,870.9141,550.6587,874.9141,560.6587,878.9141,556.6587,874.9141" style="stroke:#181818;stroke-width:1;"/><line style="stroke:#181818;stroke-width:1;" x1="554.6587" x2="853.625" y1="874.9141" y2="874.9141"/><text fill="#000000" font-family="DejaVu Sans" font-size="13" lengthAdjust="spacing" textLength="218.2388" x="566.6587" y="869.8481">Request G5 execution disposition</text></g><g class="message" data-entity-1="part4" data-entity-2="part5" id="msg26"><polygon fill="#181818" points="842.625,900.0469,852.625,904.0469,842.625,908.0469,846.625,904.0469" style="stroke:#181818;stroke-width:1;"/><line style="stroke:#181818;stroke-width:1;stroke-dasharray:2,2;" x1="549.6587" x2="848.625" y1="904.0469" y2="904.0469"/><text fill="#000000" font-family="DejaVu Sans" font-size="13" lengthAdjust="spacing" textLength="280.9663" x="556.6587" y="898.981">G5 credibility and representativity decision</text></g><g class="message" data-entity-1="part7" data-entity-2="part7" id="msg27"><line style="stroke:#181818;stroke-width:1;" x1="1550.1494" x2="1592.1494" y1="933.1797" y2="933.1797"/><line style="stroke:#181818;stroke-width:1;" x1="1592.1494" x2="1592.1494" y1="933.1797" y2="946.1797"/><line style="stroke:#181818;stroke-width:1;" x1="1551.1494" x2="1592.1494" y1="946.1797" y2="946.1797"/><polygon fill="#181818" points="1561.1494,942.1797,1551.1494,946.1797,1561.1494,950.1797,1557.1494,946.1797" style="stroke:#181818;stroke-width:1;"/><text fill="#000000" font-family="DejaVu Sans" font-size="13" lengthAdjust="spacing" textLength="275.5391" x="1557.1494" y="928.1138">Validate evidence-envelope completeness</text></g><g class="message" data-entity-1="part7" data-entity-2="part4" id="msg28"><polygon fill="#181818" points="560.6587,971.3125,550.6587,975.3125,560.6587,979.3125,556.6587,975.3125" style="stroke:#181818;stroke-width:1;"/><line style="stroke:#181818;stroke-width:1;" x1="554.6587" x2="1549.1494" y1="975.3125" y2="975.3125"/><text fill="#000000" font-family="DejaVu Sans" font-size="13" lengthAdjust="spacing" textLength="213.1987" x="566.6587" y="970.2466">Request G6 evidence disposition</text></g><g class="message" data-entity-1="part4" data-entity-2="part8" id="msg29"><polygon fill="#181818" points="1827.6885,1000.4453,1837.6885,1004.4453,1827.6885,1008.4453,1831.6885,1004.4453" style="stroke:#181818;stroke-width:1;"/><line style="stroke:#181818;stroke-width:1;stroke-dasharray:2,2;" x1="549.6587" x2="1833.6885" y1="1004.4453" y2="1004.4453"/><text fill="#000000" font-family="DejaVu Sans" font-size="13" lengthAdjust="spacing" textLength="266.6904" x="556.6587" y="999.3794">Evidence package, G6 decision and gaps</text></g><g class="message" data-entity-1="part8" data-entity-2="part8" id="msg30"><line style="stroke:#181818;stroke-width:1;" x1="1839.6885" x2="1881.6885" y1="1033.5781" y2="1033.5781"/><line style="stroke:#181818;stroke-width:1;" x1="1881.6885" x2="1881.6885" y1="1033.5781" y2="1046.5781"/><line style="stroke:#181818;stroke-width:1;" x1="1840.6885" x2="1881.6885" y1="1046.5781" y2="1046.5781"/><polygon fill="#181818" points="1850.6885,1042.5781,1840.6885,1046.5781,1850.6885,1050.5781,1846.6885,1046.5781" style="stroke:#181818;stroke-width:1;"/><text fill="#000000" font-family="DejaVu Sans" font-size="13" lengthAdjust="spacing" textLength="234.6982" x="1846.6885" y="1028.5122">Assess residual risk and uncertainty</text></g><g class="message" data-entity-1="part8" data-entity-2="part4" id="msg31"><polygon fill="#181818" points="560.6587,1071.7109,550.6587,1075.7109,560.6587,1079.7109,556.6587,1075.7109" style="stroke:#181818;stroke-width:1;"/><line style="stroke:#181818;stroke-width:1;" x1="554.6587" x2="1838.6885" y1="1075.7109" y2="1075.7109"/><text fill="#000000" font-family="DejaVu Sans" font-size="13" lengthAdjust="spacing" textLength="278.0718" x="566.6587" y="1070.645">Record G7 GO / CONDITIONAL GO / NO-GO</text></g><g class="message" data-entity-1="part4" data-entity-2="part1" id="msg32"><polygon fill="#181818" points="47.4136,1100.8438,37.4136,1104.8438,47.4136,1108.8438,43.4136,1104.8438" style="stroke:#181818;stroke-width:1;"/><line style="stroke:#181818;stroke-width:1;stroke-dasharray:2,2;" x1="41.4136" x2="548.6587" y1="1104.8438" y2="1104.8438"/><text fill="#000000" font-family="DejaVu Sans" font-size="13" lengthAdjust="spacing" textLength="237.688" x="53.4136" y="1099.7778">Attributable delivery decision record</text></g><path d="M492,1117.8438 L492,1172.8438 L1895,1172.8438 L1895,1127.8438 L1885,1117.8438 L492,1117.8438" fill="#FEFFDD" style="stroke:#181818;stroke-width:0.5;"/><path d="M1885,1117.8438 L1885,1127.8438 L1895,1127.8438 L1885,1117.8438" fill="#FEFFDD" style="stroke:#181818;stroke-width:0.5;"/><text fill="#000000" font-family="DejaVu Sans" font-size="13" lengthAdjust="spacing" textLength="451.0581" x="963.7329" y="1134.9106">G3 and G4 remain distinct decisions with different accountable roles.</text><text fill="#000000" font-family="DejaVu Sans" font-size="13" lengthAdjust="spacing" textLength="291.4336" x="963.7329" y="1150.0435">No pilot execution starts before P0 approval.</text><text fill="#000000" font-family="DejaVu Sans" font-size="13" lengthAdjust="spacing" textLength="235.6694" x="963.7329" y="1165.1763">No production apply is autonomous.</text><?plantuml-src ZLRDRjj64BxpAGRffGN4sacJ1l2X04tBgW1RCcpMfroMkqDnu-KkipzoTEj3z0dx99rTahBbo4bXWA2vy_FDzytCoZr8tJFBEgWPVzXO4xGeZJ8MVheiwQ_8tDx2jKoOHwatq33byDc9m8O5vI-DzYlM8LpWPtOVu8vfbtdf5S9VrrTmXry2Qexmxz__m2NvnL1C2vXlfOW7-Oqr8l3u-GALtABTmS-BqtpnyPSiOzmJghlUQ6Vi-DzSRwH6j1d1y9BBdcaFRwwhczoR_3ReJxfmJZfFdzy0Sr0i3ot_31tJi60UF-axj5l9CTd5BuUMvVAal4XdvM6C2fslKSIJwlpGPrtDh-1aNrtodjyVsaJtnC4jAcIES1J1jyPABz4bZwh8ih5goFz8qCvWSGg4ND3x39m9bgDBKTZelCkY7UJaCFgUGH64zAmcCSXRIDSRHrcCpYOMO_XYUGQbOiHQimD7cBYduaZduCSCpeMkZtxkm770THibfeeMRmUVl95UetDWSIlnyGdLv7e0w-shi8ReTw7kfATE9M1qD0FVMdIjKSBDe0vYWmENlJNUSAE-vUq2EOa1DwVGjnG5yAlqnq150siuefY1PjQQHw0mpfl-6xQcaaaFsKngdg-lWIcFLZDFVUooOlaYGqbcSX3GMoOmDqqpC8nZlu2fbTom7rBz3fZbhVGaLR1u4bF_BxRVVRS9fl1BLX92UXl02SD3XzedM20iQ_oHucw2KWHYYF0eVHlPtA9cLDP1fdAvLtN0JCt69sQoShctuIrsR0Oakvz1q9AUlL6IxmR15OqncV07DpgzuEYtM4V-9J15it5GzvwZc8RikA7iYVEekCNFH6kqUuQ56AQfGsxHHqGyYHLXR8FIQ5ajKvRlu95QO8_qe1MmU0zyLnCThwDw_mDKrJa9s_TgzyGTfG3fZ69nVFsmevvPpxyY3sJL8dLfIroYROpjeZup2k-eWdrLrYWLBuUiEe_ky_ipg2oZZKF5cmqzE_HMSdf1adZi4rCxsgTZynwLv0CDNmIH-kZLqZy0qIpaI6c2Wpq175fmczIacNQfXUydVFUaSs9XcgKSzHQLwP6Ox7g57kDM6ZrU0FlzQGAFuggAi_rEXvw8OHiYZTmc80dcXlKkgmeO7UWU6jQWauAw4Anq3yakK1Jh6VNrRZIVu71Z1Im-mc9DbqYvNbqig-LwLLmD7rRhVB4-jkKzYL67OSR5T8lkeTaKDikq8KSQIPlIpUYIeTwFUAZPB8sQJA9ugRdVExjXb8Li6hInTHddz7jXI4LTWkxNR6MWbyhuP-BIzMkfAsga3akhb_Ln6p0rMAShFncorCBInLlCQDEPG05fIY22_Gy0?></g></svg>